<svg xmlns="http://www.w3.org/2000/svg" width="233.08" height="33.423" viewBox="0 0 233.08 33.423"><path d="M230.08,10.141,217.924,26.376H230.08v4.047H209.8l12.156-16.2H209.8V10.141Zm-24.2-6.062a2.713,2.713,0,0,0-.845-2.015,2.825,2.825,0,0,0-3.965,0,2.8,2.8,0,0,0-.845,2.015,2.668,2.668,0,0,0,.845,1.983,2.748,2.748,0,0,0,3.965,0,2.668,2.668,0,0,0,.845-1.983m-.813,26.344h-4.046V10.141h4.046ZM185.536,10.141a9.659,9.659,0,0,1,7.15,2.99,9.721,9.721,0,0,1,2.99,7.151V30.423H191.6V20.282a6.078,6.078,0,0,0-12.156,0V30.423H175.4V20.282c0-2.8,2.958-7.151,2.958-7.151s4.388-2.99,7.183-2.99M170.716,4.079a2.713,2.713,0,0,0-.845-2.015,2.71,2.71,0,0,0-1.983-.813,2.747,2.747,0,0,0-2,.813,2.8,2.8,0,0,0-.845,2.015,2.668,2.668,0,0,0,.845,1.983,2.767,2.767,0,0,0,3.981,0,2.668,2.668,0,0,0,.845-1.983m-.8,26.344h-4.046V10.141h4.046ZM146.242,0a14.564,14.564,0,0,1,10.726,4.453,14.753,14.753,0,0,1,4.453,10.758,14.611,14.611,0,0,1-4.453,10.758,14.59,14.59,0,0,1-10.726,4.453H135.077V0Zm0,26.376a10.713,10.713,0,0,0,7.865-3.267,10.76,10.76,0,0,0,3.266-7.9,10.713,10.713,0,0,0-3.266-7.866,10.713,10.713,0,0,0-7.865-3.267h-7.118v22.3Zm-41.83-16.235a9.659,9.659,0,0,1,7.15,2.99,9.66,9.66,0,0,1,2.99,7.151,9.757,9.757,0,0,1-2.99,7.183,9.753,9.753,0,0,1-7.15,2.958A10.1,10.1,0,0,1,94.271,20.282a9.754,9.754,0,0,1,2.958-7.151,9.731,9.731,0,0,1,7.183-2.99m0,16.235a6.1,6.1,0,0,0,6.062-6.094,6.078,6.078,0,1,0-10.352,4.29,5.756,5.756,0,0,0,4.29,1.8M79.792,10.141a9.659,9.659,0,0,1,7.15,2.99,9.721,9.721,0,0,1,2.99,7.151V30.423H85.853V20.282a6.078,6.078,0,0,0-12.156,0V30.423H69.651V20.282a9.754,9.754,0,0,1,2.958-7.151,9.782,9.782,0,0,1,7.183-2.99M64.614,30.423H54.473A10.1,10.1,0,0,1,44.332,20.282V10.141h4.046V20.282a6.16,6.16,0,0,0,6.094,6.094h6.062V10.141h4.079V30.423Zm-38.368,0V20.282A9.754,9.754,0,0,1,29.2,13.131a9.756,9.756,0,0,1,7.183-2.99h4.046V14.22H36.4a6.1,6.1,0,0,0-6.094,6.062V30.423H26.245ZM18.1,13.619A8.568,8.568,0,0,1,22.3,21.273a8.8,8.8,0,0,1-2.681,6.468,8.776,8.776,0,0,1-6.435,2.681H0V0H12.156a7.744,7.744,0,0,1,5.72,2.389,7.744,7.744,0,0,1,2.389,5.721A7.707,7.707,0,0,1,18.1,13.619m-5.948-9.54H4.046v8.093h8.109a3.852,3.852,0,0,0,2.86-1.186A3.9,3.9,0,0,0,16.2,8.126a3.852,3.852,0,0,0-1.186-2.86,3.852,3.852,0,0,0-2.86-1.186M13.2,26.344A5.056,5.056,0,0,0,16.771,17.7,4.9,4.9,0,0,0,13.2,16.2a.721.721,0,0,0-.211.033H4.046V26.344Z" transform="translate(3 3)" fill="#fff"/><rect width="115" height="20" fill="none"/></svg>